<svg width="25" height="25" viewBox="0 0 25 25" fill="none" xmlns="http://www.w3.org/2000/svg">
<path d="M25.0002 12.0602C25.0002 18.7211 19.4039 24.1205 12.5001 24.1205C5.59655 24.1205 0 18.7211 0 12.0602C0 5.39961 5.59655 0 12.5001 0C19.4039 0 25.0002 5.39961 25.0002 12.0602Z" fill="white"/>
<path d="M17.5005 6.27148L10.0004 13.5076L6.87539 10.4926L4.21912 13.0252L7.34414 16.0403L9.84416 18.4523L10.0004 18.5729L20.1567 8.80411L17.5005 6.27148Z" fill="#5EC23A"/>
<path d="M12.4986 25.0004C19.4014 25.0004 24.9972 19.6015 24.9972 12.9416C24.9972 6.28171 19.4014 0.882812 12.4986 0.882812C5.5958 0.882812 0 6.28171 0 12.9416C0 19.6015 5.5958 25.0004 12.4986 25.0004Z" fill="#DF0505"/>
<path d="M17.3784 8.82422L8.23193 17.6488" stroke="white" stroke-width="1.5" stroke-linecap="round" stroke-linejoin="round"/>
<path d="M8.23193 8.82422L17.3784 17.6488" stroke="white" stroke-width="1.5" stroke-linecap="round" stroke-linejoin="round"/>
</svg>
