<svg width="18" height="25" fill="none" xmlns="http://www.w3.org/2000/svg"><path fill-rule="evenodd" clip-rule="evenodd" d="M8.913 24.192c-3.409 0-6.427-1.7-7.882-4.422C-.276 17.347-.99 12.996 2.998 6.094a.319.319 0 0 1 .364-.141.313.313 0 0 1 .202.354c-.31 2.353.04 3.345.39 3.77.041.042.082.099.122.127C3.294 6.59 5.436 3.26 5.53 3.118a.293.293 0 0 1 .35-.127c.122.042.216.17.203.312-.04 1.743.579 2.14.687 2.196h.04c1.307 0 1.752-3.84 1.806-5.187 0-.127.067-.226.161-.283.108-.043.23-.043.31.028 4.393 3.288 4.581 8.66 4.541 10.232a1.05 1.05 0 0 0 .256-.212c.35-.425.7-1.417.377-3.77a.345.345 0 0 1 .202-.354.312.312 0 0 1 .364.141c3.988 6.902 3.274 11.253 1.98 13.676-1.454 2.721-4.486 4.422-7.895 4.422z" fill="url(#a)"/><path fill-rule="evenodd" clip-rule="evenodd" d="M8.92 24.192c-1.722 0-3.245-.814-3.98-2.115-.66-1.159-1.02-3.24.993-6.54a.165.165 0 0 1 .184-.068.149.149 0 0 1 .102.17c-.156 1.125.02 1.599.197 1.802.02.02.041.048.061.061-.394-1.728.687-3.32.735-3.389.04-.06.109-.08.177-.06.061.02.109.08.102.148-.02.834.292 1.024.347 1.051h.02c.66 0 .884-1.837.912-2.48 0-.062.034-.109.081-.136.055-.02.116-.02.157.014 2.217 1.572 2.312 4.14 2.292 4.893a.527.527 0 0 0 .13-.102c.176-.203.353-.677.19-1.803a.164.164 0 0 1 .102-.17c.068-.02.15.008.183.069 2.014 3.3 1.653 5.381 1 6.54-.734 1.301-2.265 2.115-3.986 2.115z" fill="#FFFDD8"/><path fill-rule="evenodd" clip-rule="evenodd" d="M2.998 6.094C-.99 12.996-.276 17.347 1.031 19.77c1.334 2.509 4.002 4.138 7.087 4.38-.808-.086-1.55-.327-2.17-.724-1.616-.75-2.936-1.97-3.758-3.5-1.213-2.282-1.927-6.235 1.266-12.4.014-.354.054-.765.108-1.219a.313.313 0 0 0-.202-.354.319.319 0 0 0-.364.141z" fill="url(#b)"/><defs><linearGradient id="a" x1="8.918" y1=".001" x2="8.918" y2="24.186" gradientUnits="userSpaceOnUse"><stop stop-color="#F91"/><stop offset="1" stop-color="#F60"/></linearGradient><linearGradient id="b" x1="4.059" y1="5.938" x2="4.059" y2="24.154" gradientUnits="userSpaceOnUse"><stop stop-color="#FF7C0E"/><stop offset="1" stop-color="#FF5300"/></linearGradient></defs></svg>