<svg width="293" height="85" fill="none" xmlns="http://www.w3.org/2000/svg"><path d="M63.65 8.85c.133 2.033-.1 5.317-.7 9.85-.567 4.533-1.167 8.617-1.8 12.25-.6 3.633-1.533 8.867-2.8 15.7-2.833 15.633-4.2 24.733-4.1 27.3.133-.233.283-.483.45-.75a.91.91 0 0 1 .55-.45.98.98 0 0 1 .75.1.91.91 0 0 1 .45.55.98.98 0 0 1-.1.75c-.5.867-.983 1.517-1.45 1.95-.433.467-.933.6-1.5.4-.333-.133-.583-.383-.75-.75-.167-.333-.267-.967-.3-1.9-.033-.9.017-2.017.15-3.35.133-1.3.383-3.133.75-5.5.367-2.333.8-4.933 1.3-7.8s1.15-6.483 1.95-10.85c1.2-6.633 2.1-11.733 2.7-15.3.633-3.6 1.233-7.683 1.8-12.25.6-4.6.85-7.867.75-9.8-.133-1.833-.467-2.783-1-2.85h-.05c-.233 0-.533.117-.9.35-.333.233-.8.65-1.4 1.25-.567.6-1.183 1.367-1.85 2.3-.667.9-1.45 2.117-2.35 3.65-.9 1.5-1.833 3.217-2.8 5.15-5.067 10.133-9.95 23.317-14.65 39.55-.067.267-.217.45-.45.55-.2.133-.433.167-.7.1-.233-.033-.433-.167-.6-.4a.905.905 0 0 1-.15-.65c2.333-13.733 3.583-24.05 3.75-30.95.033-1.6 0-3-.1-4.2-.067-1.2-.167-2.083-.3-2.65-.1-.567-.25-1.033-.45-1.4-.167-.367-.283-.567-.35-.6a.782.782 0 0 0-.2-.15c-.633-.1-1.65.783-3.05 2.65-2.5 3.3-5.567 9.1-9.2 17.4-2.767 6.333-5.517 13.383-8.25 21.15a382.227 382.227 0 0 0-7.25 22.9v.05c-.167.4-.3.7-.4.9a5.49 5.49 0 0 1-.3.7c-.133.267-.283.45-.45.55-.167.1-.35.15-.55.15-.1 0-.217-.017-.35-.05-.433-.133-.683-.5-.75-1.1-.033-.567.05-1.417.25-2.55.233-1.567.633-3.817 1.2-6.75 1-5.033 2.467-11.933 4.4-20.7 3.133-14.267 5.9-26.433 8.3-36.5.2-.933.367-1.8.5-2.6s.217-1.483.25-2.05a7.844 7.844 0 0 0-.1-2.6c-.033-.267-.1-.5-.2-.7-.067-.2-.15-.333-.25-.4l-.2-.2c-.767-.5-2.183.05-4.25 1.65-.933.733-1.9 1.617-2.9 2.65A42.59 42.59 0 0 0 10.8 16a47.024 47.024 0 0 0-2.65 3.9 38.275 38.275 0 0 0-2.2 4.15 34.684 34.684 0 0 0-1.6 4.1c-.4 1.367-.633 2.65-.7 3.85-.033 1.167.1 2.25.4 3.25.967 2.867 3.733 4.333 8.3 4.4.167 0 .317.05.45.15a.604.604 0 0 1 .35.35c.1.133.15.3.15.5 0 .267-.1.5-.3.7a.995.995 0 0 1-.65.25h-.05a20.536 20.536 0 0 1-2.95-.3c-.933-.167-1.9-.45-2.9-.85a7.95 7.95 0 0 1-2.6-1.75c-.733-.8-1.283-1.75-1.65-2.85C.967 32.117 2 27.167 5.3 21a50.213 50.213 0 0 1 4.75-7.15c1.8-2.267 3.583-4.083 5.35-5.45 2.767-2.133 4.917-2.7 6.45-1.7 1.933 1.233 2.2 4.767.8 10.6-1.433 6.1-3.45 14.917-6.05 26.45-2.6 11.5-4.633 20.883-6.1 28.15 3.967-12.733 8.2-24.267 12.7-34.6a187.501 187.501 0 0 1 3-6.55c.967-2 1.817-3.7 2.55-5.1.767-1.4 1.5-2.633 2.2-3.7.733-1.1 1.35-1.983 1.85-2.65.5-.667 1-1.233 1.5-1.7.5-.467.9-.8 1.2-1 .3-.2.617-.333.95-.4.333-.067.567-.083.7-.05.133 0 .3.017.5.05.367.067.7.233 1 .5.3.233.583.65.85 1.25.3.567.533 1.3.7 2.2.167.9.267 2.1.3 3.6.067 1.5.05 3.233-.05 5.2-.067 1.933-.25 4.3-.55 7.1-.267 2.767-.633 5.85-1.1 9.25 1.6-4.9 3.233-9.483 4.9-13.75 1.7-4.3 3.35-8.133 4.95-11.5 1.633-3.367 3.183-6.25 4.65-8.65 1.5-2.433 2.9-4.25 4.2-5.45 1.333-1.233 2.5-1.8 3.5-1.7 1.567.167 2.45 1.7 2.65 4.6zm20.93 32a.845.845 0 0 1 .75.05c.233.1.383.283.45.55.1.233.1.467 0 .7-3.567 7.367-6.75 11.05-9.55 11.05a3.37 3.37 0 0 1-.55-.05c-2.233-.433-3.617-3.433-4.15-9-1.633 2.2-3.083 4-4.35 5.4-1.133 1.2-2.1 1.617-2.9 1.25-.8-.3-1.183-1.167-1.15-2.6 0-1.2.267-2.633.8-4.3.533-1.667 1.317-3.283 2.35-4.85 1.033-1.567 2.15-2.55 3.35-2.95 1.767-.633 3.4-.05 4.9 1.75.167.2.233.433.2.7 0 .267-.1.483-.3.65-.2.167-.433.25-.7.25a.972.972 0 0 1-.65-.35c-1.167-1.4-2.35-1.667-3.55-.8-1.367.967-2.517 2.717-3.45 5.25-.9 2.5-1.25 4.283-1.05 5.35.2-.167.433-.383.7-.65 1.333-1.433 2.967-3.483 4.9-6.15l.9-1.25c.267-.333.617-.433 1.05-.3.433.1.667.383.7.85.067 1.633.2 3.083.4 4.35.2 1.267.4 2.233.6 2.9.2.633.433 1.167.7 1.6.267.433.467.717.6.85.167.1.333.15.5.15.467.1 1.05-.117 1.75-.65.733-.567 1.65-1.633 2.75-3.2 1.133-1.6 2.283-3.617 3.45-6.05.133-.267.317-.433.55-.5zm45.647-17.9c.166.233.233.483.2.75-.034.267-.15.467-.35.6-.4.3-.8.3-1.2 0-1.367-.467-9.767-.583-25.2-.35-2.434 10.1-4.8 20.783-7.1 32.05-2.3 11.3-3.684 18.983-4.15 23.05.066 0 .15.017.25.05.233.1.4.267.5.5.133.233.15.483.05.75-.2.467-.367.833-.5 1.1-.1.267-.267.517-.5.75-.234.267-.484.4-.75.4-.1 0-.217-.017-.35-.05-.434-.133-.7-.483-.8-1.05-.067-.567-.017-1.317.15-2.25.133-1.433.433-3.467.9-6.1.833-5 2.083-11.5 3.75-19.5a1067.736 1067.736 0 0 1 6.05-27.55c-4.467 11.667-8.1 20.733-10.9 27.2a163.613 163.613 0 0 1-2.85 6.2c-.834 1.7-1.517 3-2.05 3.9-.534.933-1.017 1.633-1.45 2.1-.434.467-.784.733-1.05.8-.267.1-.55.1-.85 0-.734-.167-1.15-.883-1.25-2.15-.134-1.233.066-3.867.6-7.9 1.6-11.233 3.783-21.9 6.55-32-1.734.033-4.134.083-7.2.15-5.734.133-9.117.2-10.15.2a.879.879 0 0 1-.65-.25.96.96 0 0 1-.3-.7c0-.267.1-.483.3-.65.166-.2.383-.3.65-.3 1 0 4.366-.067 10.1-.2 2.633-.067 5.233-.133 7.8-.2.966-3.433 1.95-6.617 2.95-9.55a.92.92 0 0 1 .5-.5.749.749 0 0 1 .7-.05c.266.067.45.217.55.45.133.233.15.483.05.75a178.207 178.207 0 0 0-2.75 8.85c3.666-.067 7.05-.133 10.15-.2 1.466-3.833 3-7.917 4.6-12.25.1-.233.266-.4.5-.5a.749.749 0 0 1 .7-.05.913.913 0 0 1 .55.45.882.882 0 0 1 .1.7c-.9 3.267-1.884 7.133-2.95 11.6 4.9-.1 8.983-.133 12.25-.1 3.3.033 5.833.067 7.6.1 1.8 0 3.15.083 4.05.25.933.133 1.5.25 1.7.35.2.067.366.183.5.35zm-41.05 28.1c2.8-6.6 6.383-15.617 10.75-27.05a608.5 608.5 0 0 0-10 .2c-2.8 10.167-5.017 20.933-6.65 32.3-.534 3.667-.734 6.167-.6 7.5 1.3-1.567 3.466-5.883 6.5-12.95zm37.606-10.6c.267-.067.5-.033.7.1a.915.915 0 0 1 .45.6.975.975 0 0 1-.1.75 90.564 90.564 0 0 1-3.15 4.75c-1 1.367-1.866 2.483-2.6 3.35-.7.833-1.383 1.533-2.05 2.1-.666.6-1.2 1.017-1.6 1.25-.4.267-.8.433-1.2.5-.4.1-.683.133-.85.1-.133 0-.3-.017-.5-.05-1.566-.4-2.45-2.183-2.65-5.35-.033-.7-.116-1.283-.25-1.75-.133-.5-.25-.817-.35-.95-.1-.167-.183-.25-.25-.25h-.05c-.266 0-.633.217-1.1.65-.466.4-1.033 1.067-1.7 2-.666.933-1.366 2.067-2.1 3.4-.733 1.333-1.55 3.017-2.45 5.05a111.161 111.161 0 0 0-2.55 6.6c-.133.433-.433.65-.9.65h-.2a.763.763 0 0 1-.4-.2.915.915 0 0 1-.3-.4.57.57 0 0 1-.05-.4c.067-1.367.95-5.75 2.65-13.15 1.667-7.433 3.034-13.4 4.1-17.9 1.1-4.533 1.95-8 2.55-10.4 1.134-4.6 2.434-8.517 3.9-11.75 1.5-3.267 2.784-5 3.85-5.2.567-.1 1 .067 1.3.5.734 1 .3 3.583-1.3 7.75-1.566 4.167-4.016 9.267-7.35 15.3-2.566 10.567-4.55 19.05-5.95 25.45 1.467-3.1 2.917-5.55 4.35-7.35 1.434-1.833 2.75-2.667 3.95-2.5 1.5.2 2.334 1.767 2.5 4.7.167 2.233.567 3.433 1.2 3.6.1.033.234.033.4 0 .2-.033.584-.233 1.15-.6.567-.367 1.184-.9 1.85-1.6.667-.733 1.567-1.867 2.7-3.4 1.167-1.533 2.417-3.383 3.75-5.55a.975.975 0 0 1 .6-.4zm-9.5-33.1c-1.833 2.633-3.55 6.983-5.15 13.05 2.934-5.9 4.65-10.25 5.15-13.05zm24.283 33.35a.75.75 0 0 1 .7.15.764.764 0 0 1 .4.6.99.99 0 0 1-.15.7c-3.766 5.267-7.2 9-10.3 11.2-1.233.867-2.45 1.3-3.65 1.3-.933 0-1.75-.25-2.45-.75-.4-.3-.75-.7-1.05-1.2-.333-.5-.616-1.2-.85-2.1-.233-.9-.266-2.083-.1-3.55.134-1.467.5-3.133 1.1-5V42c.934-3.033 2.067-5.433 3.4-7.2 1.334-1.767 2.534-2.667 3.6-2.7.767-.033 1.267.3 1.5 1 .367.967-.066 2.333-1.3 4.1-1.233 1.767-3.05 3.667-5.45 5.7-.4 1.3-.683 2.5-.85 3.6-.166 1.1-.233 1.983-.2 2.65.067.633.184 1.2.35 1.7.2.467.367.8.5 1 .167.2.334.367.5.5 1 .733 2.284.533 3.85-.6 2.934-2.067 6.2-5.633 9.8-10.7a.974.974 0 0 1 .65-.35zm-9.7-6.5c-1.166.733-2.316 2.317-3.45 4.75 1.934-1.933 3.084-3.517 3.45-4.75zm38.001 6.25c.267 0 .484.1.65.3.2.167.3.383.3.65.034.267-.05.5-.25.7-1.566 1.6-3.166 2.717-4.8 3.35-1.6.633-3.083.75-4.45.35-1.566-.467-2.783-1.533-3.65-3.2a58.968 58.968 0 0 1-1.7 5.35c-.966 2.467-1.8 4.117-2.5 4.95-.7.833-1.366 1.267-2 1.3-1.2.033-2.033-1.1-2.5-3.4-.1-.567-.183-1.233-.25-2-2.033 3.1-3.55 5.117-4.55 6.05-.766.733-1.5 1.1-2.2 1.1-.4 0-.766-.117-1.1-.35-1.266-.8-1.766-2.917-1.5-6.35.234-3.467 1.15-7.45 2.75-11.95a.92.92 0 0 1 .5-.5.75.75 0 0 1 .7-.05c.267.067.45.233.55.5.134.233.15.467.05.7-1.1 3.067-1.866 5.867-2.3 8.4-.4 2.533-.55 4.383-.45 5.55.134 1.167.384 1.867.75 2.1.134.1.45-.083.95-.55 1.034-.967 2.984-3.7 5.85-8.2.234-.4.584-.533 1.05-.4.467.133.7.45.7.95 0 1.733.134 3.283.4 4.65.167.867.367 1.467.6 1.8.667-.433 1.584-2.15 2.75-5.15 1.167-3.033 1.917-5.783 2.25-8.25a.829.829 0 0 1 .3-.55c.2-.167.417-.25.65-.25.534-.033.85.217.95.75.567 2.9 1.734 4.617 3.5 5.15 1 .3 2.15.167 3.45-.4 1.3-.567 2.6-1.5 3.9-2.8.167-.2.384-.3.65-.3zM229.066 3.4c.9.6 1.667 1.367 2.3 2.3.667.9 1.2 2.067 1.6 3.5.433 1.4.533 3.167.3 5.3-.233 2.133-.817 4.517-1.75 7.15-3.067 8.5-7.133 15.167-12.2 20-2.033 1.933-4.133 3.433-6.3 4.5-2.133 1.067-4.167 1.6-6.1 1.6-.2 0-.4-.017-.6-.05-3.033-.2-5.183-1.633-6.45-4.3-4.2 17.433-6.617 28.517-7.25 33.25.067-.133.133-.283.2-.45a.92.92 0 0 1 .5-.5c.267-.1.517-.1.75 0 .233.133.4.317.5.55.1.267.1.517 0 .75-.633 1.367-1.15 2.333-1.55 2.9-.4.6-.817.9-1.25.9a.887.887 0 0 1-.4-.1c-.5-.167-.783-.65-.85-1.45-.067-.767.117-2.417.55-4.95.5-3.033 1.383-7.383 2.65-13.05 1.567-7 4.4-18.867 8.5-35.6 2.333-9.567 3.9-16.033 4.7-19.4-4.567 1.933-8.483 4.333-11.75 7.2-1.667 1.467-3.033 2.933-4.1 4.4-1.067 1.467-1.817 2.783-2.25 3.95a12.374 12.374 0 0 0-.7 3.4c-.033 1.133.033 2.083.2 2.85.2.733.467 1.45.8 2.15.133.233.15.483.05.75a.913.913 0 0 1-.45.55c-.233.1-.483.117-.75.05a1.14 1.14 0 0 1-.55-.5c-1.467-2.933-1.65-6.067-.55-9.4 1.133-3.333 3.467-6.55 7-9.65 3.833-3.333 8.367-6.017 13.6-8.05.133-.667.267-1.267.4-1.8.033-.233.167-.417.4-.55.233-.167.467-.217.7-.15a.765.765 0 0 1 .6.4.87.87 0 0 1 .15.75 3.33 3.33 0 0 0-.1.55 71.116 71.116 0 0 1 2.5-.75c3.567-.967 6.8-1.367 9.7-1.2 2.933.167 5.35.9 7.25 2.2zm.6 17.6c.433-1.2.783-2.35 1.05-3.45.3-1.1.5-2.283.6-3.55.133-1.3.117-2.467-.05-3.5a7.913 7.913 0 0 0-1.05-3.05 7.013 7.013 0 0 0-2.25-2.5c-1.633-1.1-3.8-1.7-6.5-1.8-2.667-.133-5.617.233-8.85 1.1-1.167.333-2.35.717-3.55 1.15-.767 3.433-2.417 10.333-4.95 20.7-1.5 6.033-2.667 10.767-3.5 14.2a.92.92 0 0 1 .45.6c.333 1.5.95 2.667 1.85 3.5.933.833 2.1 1.3 3.5 1.4 1.7.1 3.567-.333 5.6-1.3 2.033-.967 4.033-2.383 6-4.25 4.833-4.6 8.717-11.017 11.65-19.25zm19.342 19.65a.846.846 0 0 1 .75.05c.233.1.4.283.5.55a.75.75 0 0 1-.05.7 92.126 92.126 0 0 1-3.05 5.95 95.726 95.726 0 0 1-3.75 6.15c-1.334 2.1-2.667 3.8-4 5.1-1.334 1.333-2.467 2-3.4 2-.234 0-.45-.05-.65-.15-1.367-.533-1.8-2.6-1.3-6.2.466-3.367 1.7-8.133 3.7-14.3-.034 0-.067.017-.1.05h-.05c-.734.5-1.35.883-1.85 1.15-.467.267-1.117.567-1.95.9-.8.333-1.567.483-2.3.45a3.88 3.88 0 0 1-2.05-.7c-1.267-.9-1.917-2.15-1.95-3.75-.034-1.6.566-3.35 1.8-5.25.766-1.2 1.683-2.25 2.75-3.15 1.1-.9 2.033-1.1 2.8-.6.466.267.733.7.8 1.3.1.6-.184 1.767-.85 3.5-.667 1.7-1.784 3.933-3.35 6.7 1.033.133 2.733-.583 5.1-2.15.433-.3.75-.5.95-.6.233-.133.483-.267.75-.4.3-.133.55-.183.75-.15.2.033.4.117.6.25.5.4.583 1.1.25 2.1-3.334 10.333-4.65 16.6-3.95 18.8l.15.3c.266.033.666-.183 1.2-.65.566-.467 1.25-1.2 2.05-2.2.833-1 1.716-2.2 2.65-3.6.966-1.4 2.016-3.117 3.15-5.15a84.81 84.81 0 0 0 3.35-6.5c.133-.267.316-.433.55-.5zm-19.4-3.4c-.3 1.167-.234 2.1.2 2.8 2.433-4.233 3.733-7.1 3.9-8.6-.4.233-.867.617-1.4 1.15-.5.533-1.034 1.233-1.6 2.1-.534.833-.9 1.683-1.1 2.55zm31.778 3.25a.98.98 0 0 1 .75.1.768.768 0 0 1 .4.6.984.984 0 0 1-.1.75c-.934 1.467-2.067 3-3.4 4.6a26.956 26.956 0 0 1-4.45 4.25c-1.634 1.267-3.017 1.9-4.15 1.9-.4 0-.75-.067-1.05-.2-2.234-.967-2.467-4.883-.7-11.75a.915.915 0 0 1 .45-.6.878.878 0 0 1 .7-.1.922.922 0 0 1 .6.45.882.882 0 0 1 .1.7c-.4 1.6-.7 3.017-.9 4.25-.167 1.2-.25 2.117-.25 2.75.033.633.1 1.167.2 1.6.133.4.233.65.3.75.1.067.183.117.25.15.866.367 2.433-.5 4.7-2.6 2.3-2.1 4.283-4.5 5.95-7.2.166-.2.366-.333.6-.4zm-11.05-3.9c-.967-.067-1.267-.467-.9-1.2.333-.6.766-1 1.3-1.2.833-.267 1.333-.05 1.5.65.166.667-.084 1.167-.75 1.5a2.54 2.54 0 0 1-1.15.25zm25.596 3.9a.75.75 0 0 1 .7.15.92.92 0 0 1 .45.6c.067.267.017.5-.15.7-1.1 1.7-2.067 3.133-2.9 4.3a80.518 80.518 0 0 1-2.75 3.75c-1.033 1.3-1.983 2.333-2.85 3.1-.833.8-1.717 1.45-2.65 1.95-.933.533-1.817.8-2.65.8-.3 0-.6-.033-.9-.1-1.2-.267-2.117-.967-2.75-2.1-.667-1.5-.95-3.133-.85-4.9.067-1.8.417-3.567 1.05-5.3.667-1.833 1.5-3.25 2.5-4.25 1.033-1 2-1.35 2.9-1.05.2.067.383.167.55.3.167.1.367.333.6.7.233.333.35.783.35 1.35 0 .567-.1 1.3-.3 2.2a.92.92 0 0 1-.45.6c-.2.133-.433.167-.7.1a.918.918 0 0 1-.6-.45.878.878 0 0 1-.1-.7c.333-1.267.35-2.033.05-2.3-.133 0-.35.1-.65.3-.267.2-.633.65-1.1 1.35-.467.667-.883 1.517-1.25 2.55a15.067 15.067 0 0 0-1 4.8c-.033 1.6.2 2.85.7 3.75.333.633.817 1.017 1.45 1.15.567.133 1.2.05 1.9-.25.733-.3 1.5-.833 2.3-1.6.833-.8 1.583-1.567 2.25-2.3.667-.767 1.433-1.767 2.3-3 .9-1.267 1.583-2.233 2.05-2.9.467-.7 1.1-1.667 1.9-2.9a.97.97 0 0 1 .6-.4zm15.195.2a.75.75 0 0 1 .7.15.766.766 0 0 1 .4.6c.033.267-.017.5-.15.7-3.767 5.267-7.2 9-10.3 11.2-1.233.867-2.45 1.3-3.65 1.3-.933 0-1.75-.25-2.45-.75-.4-.3-.75-.7-1.05-1.2-.333-.5-.617-1.2-.85-2.1-.233-.9-.267-2.083-.1-3.55.133-1.467.5-3.133 1.1-5V42c.933-3.033 2.067-5.433 3.4-7.2 1.333-1.767 2.533-2.667 3.6-2.7.767-.033 1.267.3 1.5 1 .367.967-.067 2.333-1.3 4.1-1.233 1.767-3.05 3.667-5.45 5.7-.4 1.3-.683 2.5-.85 3.6-.167 1.1-.233 1.983-.2 2.65.067.633.183 1.2.35 1.7.2.467.367.8.5 1 .167.2.333.367.5.5 1 .733 2.283.533 3.85-.6 2.933-2.067 6.2-5.633 9.8-10.7a.972.972 0 0 1 .65-.35zm-9.7-6.5c-1.167.733-2.317 2.317-3.45 4.75 1.933-1.933 3.083-3.517 3.45-4.75z" fill="#000"/></svg>