<svg width="118" height="22" fill="none" xmlns="http://www.w3.org/2000/svg"><path d="m11 0 2.47 7.527h7.992l-6.466 4.651 2.47 7.527L11 15.053l-6.466 4.652 2.47-7.526L.538 7.526H8.53L11 0zM35 0l2.47 7.527h7.992l-6.466 4.651 2.47 7.527L35 15.053l-6.466 4.652 2.47-7.526-6.466-4.652h7.992L35 0zM59 0l2.47 7.527h7.992l-6.466 4.651 2.47 7.527L59 15.053l-6.466 4.652 2.47-7.526-6.466-4.652h7.992L59 0zM83 0l2.47 7.527h7.992l-6.466 4.651 2.47 7.527L83 15.053l-6.466 4.652 2.47-7.526-6.466-4.652h7.992L83 0zM107 0l2.47 7.527h7.992l-6.466 4.651 2.47 7.527L107 15.053l-6.466 4.652 2.47-7.526-6.466-4.652h7.992L107 0z" fill="#ED8E00"/></svg>